<svg width="27" height="27" viewBox="0 0 27 27" fill="none" xmlns="http://www.w3.org/2000/svg">
<path d="M13.5 0C20.9537 0 27 6.04629 27 13.5C27 20.95 20.95 27 13.5 27C6.04629 27 0 20.9537 0 13.5C0 6.04629 6.04254 0 13.5 0ZM13.5 10.5388C12.7644 10.5388 12.1714 9.94579 12.1714 9.21018C12.1714 8.47456 12.7644 7.88157 13.5 7.88157C14.2319 7.88157 14.8286 8.47456 14.8286 9.21018C14.8286 9.94579 14.2319 10.5388 13.5 10.5388ZM14.3182 19.1222C14.3182 20.1956 12.6818 20.1956 12.6818 19.1222V12.8545C12.6818 11.7811 14.3182 11.7811 14.3182 12.8545V19.1222ZM13.5 1.63636C6.95079 1.63636 1.63636 6.95079 1.63636 13.5C1.63636 20.053 6.94704 25.3636 13.5 25.3636C20.0492 25.3636 25.3636 20.053 25.3636 13.5C25.3636 6.95079 20.0492 1.63636 13.5 1.63636Z" fill="white"/>
</svg>
