<svg viewBox="0 0 71 62" fill="none"
    xmlns="http://www.w3.org/2000/svg">
    <path d="M49.2159 0C40.7688 0 33.8864 6.95897 33.8864 15.5C33.8864 24.041 40.7688 31 49.2159 31C57.663 31 64.5455 24.041 64.5455 15.5C64.5455 6.95897 57.663 0 49.2159 0ZM49.2159 3.26316C55.9183 3.26316 61.3182 8.72312 61.3182 15.5C61.3182 22.2769 55.9183 27.7368 49.2159 27.7368C42.5136 27.7368 37.1136 22.2769 37.1136 15.5C37.1136 8.72312 42.5136 3.26316 49.2159 3.26316ZM49.2159 4.89474C48.4523 4.89474 47.6023 5.71927 47.6023 6.52631V6.73026C45.0666 7.35959 43.5682 9.42674 43.5682 11.4211C43.5682 13.0657 44.2468 14.5079 45.2827 15.398C46.3186 16.2881 47.5216 16.696 48.7621 17.0558C49.8599 17.3734 50.661 17.7347 51.0572 18.0756C51.4534 18.4164 51.6378 18.6641 51.6378 19.5804C51.6378 20.3976 50.4694 21.212 49.2174 21.212C48.2564 21.212 46.7969 20.6307 46.7969 19.5804C46.8084 18.718 46.0362 17.9226 45.1833 17.9226C44.3303 17.9226 43.5567 18.718 43.5696 19.5804C43.5696 21.936 45.359 23.6943 47.6037 24.2712V24.4751C47.6037 25.3375 48.4595 26.1067 49.2174 26.1067C49.9752 26.1067 50.831 25.3375 50.831 24.4751V24.296C53.3681 23.6666 54.8651 21.5747 54.8651 19.5804C54.8651 17.9357 54.1865 16.4673 53.1506 15.5772C52.1147 14.6871 50.9117 14.2792 49.6712 13.9194C48.5719 13.6018 47.7723 13.2653 47.3761 12.9259C46.9799 12.585 46.7955 12.3388 46.7955 11.4225C46.7955 10.6271 47.9178 9.79093 49.2159 9.79093C50.151 9.79093 51.6364 10.4508 51.6364 11.4225C51.6248 12.2849 52.3971 13.0803 53.25 13.0803C54.1029 13.0803 54.8766 12.2849 54.8636 11.4225C54.8636 9.06692 53.0742 7.3086 50.8295 6.73172V6.52777C50.8295 5.60127 49.9795 4.89619 49.2159 4.89619V4.89474ZM27.4318 26.1053C26.2 26.1053 24.886 26.4796 23.5749 27.0492L14.5227 30.9752V29.3699C14.5227 28.5162 13.7534 27.7383 12.9091 27.7383H1.61364C0.734781 27.7383 0 28.6342 0 29.3699V57.1067C0 57.9604 0.769359 58.7383 1.61364 58.7383H12.9091C13.7534 58.7383 14.5227 57.9604 14.5227 57.1067V53.8436H17.75C20.1935 53.9295 24.448 55.8291 28.9187 57.8467C33.4167 59.876 38.2158 62.0014 42.7614 62.0014C45.0954 62.0014 46.6744 60.785 48.4595 59.6051L68.2525 46.5014C69.9022 45.3856 71 43.5078 71 41.6067C71 38.0216 68.0911 35.0804 64.5455 35.0804C62.5832 35.0804 60.7476 35.9792 58.8977 36.712L44.2497 42.5245C44.1618 41.5557 44.0206 40.5404 43.7454 39.5163C42.8982 37.3384 41.9214 35.5509 40.3424 34.4948C40.1334 34.3302 35.3257 30.5076 32.5004 28.1214C31.6359 27.3916 29.9099 26.1067 27.4318 26.1067V26.1053ZM27.4318 29.3684C28.851 29.3684 29.7269 30.0225 30.4315 30.6169C33.1184 32.8865 37.1208 36.0419 37.9694 36.7091C39.4765 37.9357 40.6089 39.6852 40.995 42.2156C40.995 42.2156 30.0295 36.9451 29.5367 36.7863C29.3811 36.7367 29.2155 36.7105 29.044 36.7105C28.1522 36.7105 27.4304 37.4418 27.4304 38.3421C27.4304 38.8855 27.6926 39.3691 28.0974 39.6692C28.3251 39.8382 42.0799 46.3485 42.0799 46.3485C42.309 46.4577 42.6173 46.5014 42.7599 46.5014C42.9299 46.5014 43.1532 46.4723 43.3391 46.3995L61.8959 39.0574C62.8555 38.7194 63.9879 38.3436 64.544 38.3436C66.3449 38.3436 67.7713 39.7843 67.7713 41.6067C67.7713 42.6264 67.0682 43.3781 66.0813 44.0279L46.2638 57.1315C45.1285 57.9094 44.0436 58.7383 42.7599 58.7383C39.2733 58.7383 34.6817 56.8722 30.2297 54.8633C25.7778 52.8544 21.5075 50.6809 17.75 50.5804H14.5227V34.5195L24.8342 30.0589C25.8139 29.635 27.0356 29.3713 27.4304 29.3713L27.4318 29.3684ZM3.22727 31H11.2955V55.4737H3.22727V31Z" fill="white"/>
</svg>

